<?xml version="1.0" encoding="utf-8"?>
<svg viewBox="88.789 122.216 222.445 222.004" xmlns="http://www.w3.org/2000/svg" xmlns:bx="https://boxy-svg.com">
  <path style="fill: rgb(133, 133, 133); stroke: rgb(133, 133, 133);" transform="matrix(0.61873, 0.4296, -0.424906, 0.611969, -199.022552, -243.584793)" d="M 902.734 220.227 A 106.572 106.572 0 1 1 796.162 113.654 L 796.162 134.969 A 85.258 85.258 0 1 0 881.42 220.227 Z" bx:shape="pie 796.162 220.227 85.258 106.572 90 360 1@99d02a4e"/>
  <rect x="153.57" y="45.372" width="35.133" height="15.15" style="fill: rgb(133, 133, 133); stroke: rgb(133, 133, 133);" rx="5.636" ry="5.636" transform="matrix(0.869489, 0.493952, -0.493952, 0.869489, 140.408661, 139.954926)"/>
  <rect x="153.57" y="45.372" width="35.133" height="15.15" style="fill: rgb(133, 133, 133); stroke: rgb(133, 133, 133);" rx="5.636" ry="5.636" transform="matrix(0.62736, 0.778729, -0.778729, 0.62736, 173.531998, 128.909485)"/>
  <rect x="153.57" y="45.372" width="35.133" height="15.15" style="fill: rgb(133, 133, 133); stroke: rgb(133, 133, 133);" rx="5.636" ry="5.636" transform="matrix(0.999707, -0.024219, 0.024219, 0.999707, 97.108528, 184.196518)"/>
  <path d="M 303.668 126.861 L 319.08 181.107 L 288.256 181.107 L 303.668 126.861 Z" style="fill: rgb(133, 133, 133); stroke: rgb(133, 133, 133);" transform="matrix(-0.766158, 0.642652, -0.600295, -0.801687, 571.238403, 115.321312)" bx:shape="triangle 288.256 126.861 30.824 54.246 0.5 0 1@8c139126" bx:origin="1.72 -0.239"/>
</svg>